<?xml version="1.0" encoding="utf-8"?>
<!-- Generator: Adobe Illustrator 24.1.2, SVG Export Plug-In . SVG Version: 6.00 Build 0)  -->
<svg version="1.1" id="geolocation_1_" xmlns="http://www.w3.org/2000/svg" xmlns:xlink="http://www.w3.org/1999/xlink" x="0px"
	 y="0px" viewBox="0 0 1000 1000" style="enable-background:new 0 0 1000 1000;" xml:space="preserve">
<style type="text/css">
	.st0{fill:#1D1D1B;}
	.st1{fill:#FFAD00;}
	.st2{fill:#E89D00;}
	.st3{fill:#6C32AD;}
	.st4{fill:#59298F;}
	.st5{fill:#FFFFFF;}
	.st6{fill:#FFCDB2;}
	.st7{fill:#FFB49F;}
	.st8{fill:#FFC140;}
	.st9{fill:#D9CFFF;}
	.st10{fill:#1D1E1B;}
</style>
<g id="line">
	<path class="st0" d="M834.3,915.4h-704c-1.1,0-2-0.9-2-2s0.9-2,2-2h704c1.1,0,2,0.9,2,2S835.4,915.4,834.3,915.4z"/>
	<path class="st0" d="M216.3,940.4h-137c-1.1,0-2-0.9-2-2s0.9-2,2-2h137c1.1,0,2,0.9,2,2S217.4,940.4,216.3,940.4z"/>
	<path class="st0" d="M888.3,951.4h-108c-1.1,0-2-0.9-2-2s0.9-2,2-2h108c1.1,0,2,0.9,2,2S889.4,951.4,888.3,951.4z"/>
</g>
<g id="woman">
	<path class="st1" d="M451.2,427.9c0,0,50.8,184.9,213.8,245.2c122.7,45.4,116.3,34.6,159.6-1.8c37.9-31.9,87.3-150.1,72.2-183.6
		s-41-29.1-41-29.1l-6.2-27.2l-97.1,0.9l0.1,18.8c0,0-35.4,13.9-31.2,47.6s2,80.4,13.3,96.5c0,0-38.3-150.7-249.3-166.8"/>
	<path class="st0" d="M770.2,704.5c-19.4,0-48.9-9-105.8-30c-37.4-13.8-71.9-35.4-102.7-64c-24.6-23-46.8-50.5-66.1-81.8
		c-32.8-53.3-45.8-99.9-45.9-100.4l2.9-0.8c0.1,0.5,13,46.7,45.6,99.7c30,48.8,83.4,113.5,167.2,144.5
		c110,40.7,114.9,36.4,146.8,8.2c3.3-3,7.1-6.3,11.3-9.8c17.5-14.8,39.3-50.3,55.5-90.6c16.7-41.5,22.9-76.4,16.3-91.2
		c-14.4-32-38.4-28.4-39.4-28.2l-1.4,0.2l-6.3-27.4l-94.4,0.9l0.1,18.3l-1,0.4c-0.3,0.1-34.1,13.9-30.1,46.1c1.3,10.8,2,23,2.7,34.9
		c0.9,15.8,1.8,31.9,4.3,44.3c2.5,5.6,4.6,11.3,6.3,17.2l2,7.8l-4.7-6.6c-3-4.2-5-10.3-6.5-17.7c-9.7-21.9-22.9-42-39-59.7
		c-32.6-36-94.3-80.6-202.6-88.8l0.2-3c48.3,3.7,91.6,14.8,128.5,33c29.6,14.6,55.3,33.7,76.3,56.9c13.9,15.3,25.6,32.4,34.9,50.8
		c-1.3-10.3-2-22-2.7-34.1c-0.7-11.8-1.4-24-2.7-34.7c-3.9-31.3,25.3-46.2,31-48.8l-0.1-19.3l99.8-0.9l6.3,27.1
		c5.8-0.4,27.8,0.4,41.2,30c7.1,15.8,1.1,50.7-16.2,93.6c-16.4,40.7-38.5,76.7-56.4,91.8c-4.2,3.5-7.9,6.8-11.3,9.8
		C798.4,696.1,788.9,704.5,770.2,704.5z"/>
	<path class="st2" d="M755.1,452.5c0,0,25.7,40.4,100.3,7.9l-6.8-26.6l-92.9,0.6L755.1,452.5z"/>
	<path class="st3" d="M384.6,310.6c0,0-12.9,34.1-35.4,19.6s-70.5-46.2-95.7-13.7s-23.5,41-51.1,32.1s-91.5,23.6-46.9,91.3
		s266.9-79.3,266.9-79.3l2.6-22.5L384.6,310.6z"/>
	<path d="M384.6,310.6l40.3,27.5l-2.6,22.5c0,0-182.8,120.9-250.1,92.9c-6.9-2.7-12.7-7.5-16.8-13.6
		c-44.6-67.7,19.4-100.1,46.9-91.3s25.9,0.3,51.1-32.1c14.7-18.9,37.1-16.1,57.8-7.5c14.7,6.1,28.6,15.2,38,21.2
		c1.3,0.8,2.7,1.6,4.1,2.2C373.3,340.7,384.6,310.6,384.6,310.6 M385.9,307.6c-1.7-0.7-3.5,0.1-4.2,1.7c0,0,0,0.1,0,0.1
		c-0.1,0.2-6,15.5-16.1,20c-3.5,1.5-7.5,1.5-10.9-0.1c-1.2-0.5-2.4-1.2-3.6-1.9l-0.9-0.6c-9.2-6-23.1-15-37.7-21
		c-27.6-11.5-48.3-8.6-61.6,8.5c-4.7,6.1-8.5,11.3-11.7,15.8c-13.8,19.2-15.6,21.6-35.8,15.2c-15.8-5.1-42.3,2.2-56.6,21.1
		c-8.7,11.5-19.5,36.4,6,75.1c4.4,6.7,10.8,11.8,18.2,14.8c28.8,12,80.3-0.1,153-36c34.4-17.2,67.9-36.3,100.2-57.1
		c0.8-0.5,1.3-1.4,1.4-2.3l2.6-22.5c0.1-1.2-0.4-2.3-1.4-3L386.4,308C386.2,307.9,386,307.8,385.9,307.6L385.9,307.6z"/>
	<path class="st4" d="M150.9,432.4c25.5-54.6,136.2-81.1,168.1-79.6s71.6-0.2,81.1-10.5s-9-23.1-9-23.1l6.7,0.5l27.1,18.5l-2.6,22.5
		c0,0-222.3,147-266.9,79.3C153.8,437.3,152.3,434.8,150.9,432.4z"/>
	<path class="st1" d="M260.3,912.4c0,0-61.2-449.8,204.7-456.4c322-8,267.3,456.4,267.3,456.4L260.3,912.4z"/>
	<path class="st0" d="M734.1,914.4H258.5l-0.2-1.7c-0.1-0.7-9.1-68.4-5-150.5c2.4-48.3,8.8-92,19.1-130
		c12.8-47.6,31.7-86.3,56.2-115.1C363,476.6,408.9,455.4,465,454c75.7-1.9,137,22.3,182.1,71.8c26.9,29.5,48.2,68.2,63.3,115.1
		c12.1,37.4,20.3,80.1,24.4,126.9c7,79.6-0.4,144.3-0.5,144.9L734.1,914.4z M262.1,910.4h468.4c1.1-10.9,6.6-70.5,0.3-142.4
		c-6.4-72.9-26.7-173.7-86.7-239.5c-44.3-48.6-104.5-72.3-179-70.5c-54.9,1.4-99.7,22.1-133.4,61.7C277,583.8,261.1,687,257.3,762.4
		C253.6,836.8,260.7,899.3,262.1,910.4L262.1,910.4z"/>
	<path class="st5" d="M443.5,456.2c0,0-10.8,12.7,4.2,29.7s42.3-7.3,42.3-7.3L443.5,456.2z"/>
	<path class="st0" d="M461.2,493.4c-0.5,0-0.9,0-1.4,0c-5.1-0.3-9.9-2.6-13.2-6.5c-15.7-17.8-4.4-31.5-4.3-31.7l0.8-0.9l49.6,23.9
		l-1.7,1.5C490.5,480.3,475.5,493.4,461.2,493.4z M444,458.1c-2,3.1-7,13.4,4.9,26.8c2.8,3.3,6.8,5.3,11.2,5.5
		c10.8,0.6,22.8-8,27.3-11.5L444,458.1z"/>
	<circle class="st3" cx="559.7" cy="248.9" r="39.5"/>
	<path d="M591.4,225.4c13,17.5,9.3,42.3-8.2,55.3s-42.3,9.3-55.3-8.2c-13-17.5-9.3-42.3,8.2-55.3
		C553.6,204.2,578.4,207.9,591.4,225.4C591.4,225.4,591.4,225.4,591.4,225.4 M594,223.5c-14.1-19-40.8-22.9-59.8-8.8
		s-22.9,40.8-8.8,59.8c14.1,18.9,40.8,22.9,59.8,8.8C604.1,269.2,608,242.4,594,223.5L594,223.5z"/>
	<path class="st3" d="M603.1,408.2c0,0,35.2-9,35.9-36.3s-6.1-28.3-4.8-42.6s-14.2-37.2-36.6-41.4c0,0-15.2-30.5-40-35.9
		c-24.8-5.4-37.8,1.2-52.7,15.3s-25,18.5-35.8,28.1s-34.9,39.4-0.6,87.7S603.1,408.2,603.1,408.2z"/>
	<path d="M626.1,306.5c5.6,7.6,8.6,16.1,8,22.7c-1.3,14.4,5.4,15.4,4.8,42.6s-35.9,36.3-35.9,36.3S504,431,469,384l-0.6-0.9
		c-34.3-48.2-10.3-78.1,0.6-87.7s20.9-14,35.8-28.1c14.9-14.1,27.9-20.7,52.7-15.3c14.5,3.1,25.7,14.8,32.5,24
		c2.8,3.7,5.3,7.7,7.5,11.9C609.5,290.2,619.6,297.8,626.1,306.5 M628.7,304.7c-7.4-10-17.9-17-29-19.6c-2.1-3.8-4.4-7.4-7-10.9
		c-7.2-9.7-19-21.9-34.4-25.2c-26.2-5.7-40.3,1.6-55.7,16.1c-6.8,6.3-14,12.1-21.7,17.3c-4.9,3.3-9.5,6.9-14,10.7
		c-9.2,8.1-15.6,19-18.2,31.1c-3.9,18.8,1.8,39.3,17.2,60.9c0.2,0.3,0.5,0.6,0.7,0.9c8.4,11.3,20.9,19.6,37.3,24.8
		c12.9,4.1,28.2,6.2,45.4,6.3c18.4,0,36.7-1.8,54.7-5.6h0.1c6.6-1.9,12.9-4.6,18.6-8.3c12.6-8,19.4-18.7,19.7-31
		c0.4-15.6-1.6-22.9-3.2-28.8c-1.2-4.5-2.1-7.8-1.6-13.6C638.1,322.2,634.8,312.9,628.7,304.7L628.7,304.7z"/>
	<path class="st6" d="M514.3,434.4l2,34c0,0-48,30-69-13c0,0,31-45,46-93.1c0,0-16.2-11.8-6.3-26.6s24-11.9,29.7-4.2
		c0,0,20.7,33.9,78.3-14.9c0,0,26,27,18.1,62.6s-31,70.7-60.9,70.6S514.3,434.4,514.3,434.4z"/>
	<path class="st0" d="M595,316.6c0,0,26,27,18.1,62.6s-30.9,70.5-60.7,70.5h-0.2c-29.9-0.2-37.9-15.3-37.9-15.3l2,34
		c0,0-16.3,10.2-34,10.2c-12.7,0-26.2-5.2-35-23.2c0,0,31-45,46-93.1c0,0-16.2-11.8-6.3-26.6c5.1-7.6,11.3-10.5,16.9-10.5
		c5,0,9.8,2.4,12.8,6.4c0,0,7,11.4,24.2,11.4C553.2,343,570.8,337.1,595,316.6 M595.3,312.5l-2.3,1.8c-20.1,17-37.7,25.6-52.3,25.6
		c-15.3,0-21.5-9.9-21.6-10l-0.1-0.1l-0.1-0.1c-3.6-4.8-9.3-7.6-15.3-7.6c-7.4,0-14.3,4.2-19.4,11.9c-4.7,7.1-5,14.7-0.6,22
		c1.6,2.7,3.6,5.2,6,7.3c-14.9,46.4-44.7,89.9-45,90.4l-1,1.4l0.8,1.6c8,16.3,21,24.9,37.7,24.9c18.4,0,34.9-10.2,35.6-10.6l1.5-0.9
		l-0.1-1.8l-1.5-25.6c5.8,4.7,16.4,10,34.4,10.1h0.2c14.8,0,29-8,41-23.1c10.5-13.2,18.5-30.9,22.7-49.8c3.4-15.2,1.2-31.4-6.3-46.6
		c-3.3-6.8-7.5-13.1-12.5-18.7l-2-2L595.3,312.5z"/>
	<path d="M522.7,446.1c0.9,0.6,1.9,1.1,2.8,1.6c0.8,0.4,1.8,0.1,2.2-0.7c0.4-0.8,0.1-1.8-0.7-2.2c0,0-0.1,0-0.1-0.1
		c-9.7-4.8-17.7-16.3-17.8-16.4c-0.5-0.7-1.5-0.9-2.2-0.4s-0.9,1.5-0.4,2.2C506.8,430.7,513.7,440.5,522.7,446.1z"/>
	<path d="M495.8,354.4c0.5,0.7,1.6,0.9,2.3,0.3c0.5-0.3,0.7-0.9,0.6-1.5c-0.8-6.4,0.1-10.8,2.8-13c3.8-3.1,10.1-1,10.2-1
		c0.8,0.3,1.8-0.2,2-1c0,0,0,0,0,0c0.2-0.8-0.2-1.7-1-2c-0.3-0.1-8.1-2.7-13.3,1.6c-3.6,3-5,8.3-4,15.9
		C495.6,354,495.7,354.2,495.8,354.4z"/>
	<path class="st7" d="M574.6,365.9c-19.5-5.8-38.9-26.3-46.3-22.3s-8.9,14.1-0.6,21.3s17.9,12.1,38,21s40.4,16.2,43.8,4.8
		S603.3,374.4,574.6,365.9z"/>
	<path d="M530.4,355.9c0.4,0.5,1.1,0.8,1.8,0.6c18-5.2,24.3,10,24.6,10.7c0.4,0.8,1.4,1.1,2.2,0.7c0.7-0.4,1-1.2,0.8-1.9
		c-0.1-0.2-7.6-18.6-28.5-12.6c-0.9,0.2-1.4,1.1-1.1,2C530.2,355.5,530.3,355.7,530.4,355.9z"/>
	<path d="M591.4,357.2c1.9,2.6,4.3,4.9,7.1,6.8c0.7,0.5,1.7,0.3,2.3-0.4c0.5-0.7,0.3-1.7-0.4-2.3c-0.1,0-0.1-0.1-0.2-0.1
		c-3.4-2.4-6.3-5.5-8.2-9.2c-0.4-0.8-1.4-1.1-2.2-0.7c-0.8,0.4-1.1,1.4-0.7,2.2C589.7,354.8,590.5,356.1,591.4,357.2z"/>
	<path d="M523.7,400c3,4.1,7.5,6.9,12.4,8c0.9,0.1,1.7-0.6,1.8-1.5c0.1-0.8-0.5-1.6-1.3-1.7c-0.6-0.1-13.8-2.3-14.3-19.6
		c0-0.9-0.7-1.6-1.6-1.7s-1.6,0.7-1.7,1.6c0,0.1,0,0.2,0,0.2C519.3,391.9,521.2,396.6,523.7,400z"/>
	<path d="M514.2,328.6c3.6,4.8,8.1,9.4,13.7,12.1c0.8,0.4,1.8,0.2,2.2-0.6s0.2-1.8-0.6-2.2c-0.1,0-0.1-0.1-0.2-0.1
		c-14.7-7.1-22.2-29.6-22.3-29.8c-0.3-0.8-1.3-1.2-2.1-0.9c-0.7,0.3-1.1,1.1-0.9,1.9C506.4,316,509.8,322.6,514.2,328.6z"/>
	<path class="st5" d="M520.9,323.9c0.1,0.1,0.2,0.2,0.3,0.3c30.2,22,57.7-7,58-7.3c0.6-0.6,0.7-1.6,0.1-2.3
		c-0.6-0.6-1.6-0.7-2.3-0.1c0,0-0.1,0.1-0.1,0.1c-1,1.1-25.9,27.3-53.7,6.9c-0.7-0.5-1.7-0.3-2.3,0.4
		C520.5,322.6,520.5,323.4,520.9,323.9L520.9,323.9z"/>
	<path d="M562.8,400.2c0.2,0.3,0.6,0.6,1,0.6c0.9,0.1,1.7-0.4,1.9-1.3c0,0,0,0,0,0l5.2-32.5c0.2-0.9-0.3-1.7-1.2-1.9
		s-1.7,0.3-1.9,1.2c0,0.1,0,0.1,0,0.2l-5.2,32.4C562.4,399.4,562.5,399.9,562.8,400.2z"/>
	<circle class="st1" cx="486.2" cy="358.5" r="6.5"/>
	<path d="M491.4,354.6c2.1,2.9,1.5,6.9-1.3,9c-2.9,2.1-6.9,1.5-9-1.3c-2.1-2.9-1.5-6.9,1.3-9c0,0,0,0,0,0
		C485.2,351.2,489.2,351.8,491.4,354.6 M494,352.7c-3.2-4.3-9.3-5.2-13.6-2c-4.3,3.2-5.2,9.3-2,13.6c3.2,4.3,9.3,5.2,13.6,2
		c0,0,0,0,0,0C496.3,363.1,497.2,357,494,352.7z"/>
	<path class="st5" d="M538.4,229L538.4,229c0.7,0.8,1.7,0.8,2.4,0.3c7-6.1,14.1-8.7,21-7.8c11.3,1.5,18.6,11.9,18.7,12
		c0.5,0.7,1.6,0.9,2.3,0.3c0.7-0.5,0.8-1.4,0.4-2.2c-0.3-0.5-8.2-11.7-20.9-13.4c-7.9-1-15.8,1.9-23.6,8.6
		C537.9,227.4,537.8,228.3,538.4,229z"/>
	<circle class="st8" cx="408.4" cy="597.8" r="8.1"/>
	<circle class="st8" cx="250.4" cy="573.8" r="8.1"/>
	<circle class="st8" cx="435.4" cy="768.8" r="8.1"/>
	<circle class="st8" cx="312.4" cy="779.8" r="8.1"/>
	<circle class="st8" cx="531.4" cy="852.8" r="8.1"/>
	<circle class="st8" cx="684.4" cy="689.8" r="8.1"/>
	<circle class="st8" cx="772.4" cy="641.8" r="8.1"/>
	<circle class="st8" cx="843.4" cy="519.8" r="8.1"/>
	<circle class="st8" cx="763.4" cy="533.8" r="8.1"/>
	<circle class="st8" cx="375.4" cy="541.8" r="8.1"/>
	<circle class="st8" cx="416.4" cy="492.8" r="8.1"/>
	<circle class="st8" cx="648.4" cy="615.8" r="8.1"/>
	<path class="st2" d="M406,493c0,0,10,285,62,300s190.6-164,212.3-212S406,493,406,493z"/>
	<path class="st0" d="M772.6,394.3c-3.4,0-6.7-0.4-10-1.2c-0.8-0.2-1.3-1-1.1-1.8c0.2-0.8,1-1.3,1.8-1.1c18.5,4.8,44.9-8.1,45.2-8.3
		c0.7-0.4,1.6-0.2,2.1,0.5c0.4,0.7,0.2,1.6-0.5,2.1c-0.1,0-0.1,0.1-0.2,0.1C809,385.1,790.2,394.3,772.6,394.3z"/>
	<circle cx="593" cy="380" r="4"/>
	<path class="st0" d="M272.3,345.1H272c-32.8-3.9-64.7-15.3-94.8-33.9c-24-14.9-47-34.3-68.3-57.8c-36.2-40-55.1-78.5-55.3-78.8
		c-0.5-1-0.1-2.2,0.9-2.7s2.2-0.1,2.7,0.9c0.2,0.4,18.9,38.4,54.8,78c33,36.4,87.6,81.6,160.6,90.3c1.1,0.1,1.9,1,1.9,2.1
		C274.3,344.3,273.4,345.2,272.3,345.1L272.3,345.1z"/>
	<path class="st0" d="M201.2,368.9c-33.6,0-69.1-20.5-93.2-37.8c-16-11.5-31-24.3-44.9-38.3c-0.8-0.8-0.8-2-0.1-2.8s2-0.8,2.8-0.1
		c0,0,0.1,0.1,0.1,0.1c0.7,0.8,72.5,74.9,135.1,74.9h1c1.1,0,2,0.9,2,2s-0.9,2-2,2L201.2,368.9z"/>
	<path class="st0" d="M870,646c-0.5,0-0.9-0.2-1.3-0.5c-0.9-0.7-1-2-0.3-2.8c0,0,0,0,0,0c36.9-45,46.8-89.5,48.5-118.8
		c2-31.8-4.8-53.1-4.9-53.3c-0.3-1.1,0.3-2.2,1.4-2.5c1-0.3,2.1,0.3,2.4,1.2c0.3,0.9,7.1,22.2,5.1,54.7
		c-1.8,30-11.9,75.3-49.5,121.2C871.2,645.7,870.6,646,870,646z"/>
	<path class="st0" d="M202,644c-0.7,0-1.4-0.4-1.8-1c-14.8-26.4-22.3-56.2-21.8-86.4c0.5-22.4,5.4-36.7,5.6-37.2
		c0.4-1,1.5-1.6,2.6-1.2s1.6,1.5,1.2,2.5c-0.2,0.6-19.3,57,15.9,120.4c0.6,1,0.2,2.2-0.7,2.7C202.7,644,202.4,644.1,202,644L202,644
		z"/>
	<path class="st5" d="M865,581c-0.5,0-1-0.1-1.5-0.4c-1.4-0.8-2-2.6-1.2-4.1c20.5-37,21-61,17.7-74.6c-3.5-14.5-11.7-20.5-11.8-20.5
		c-1.3-1-1.6-2.9-0.6-4.2c0.9-1.3,2.7-1.6,4.1-0.7c0.4,0.3,10,7.1,14.1,23.5c5.3,21.3-0.8,48.1-18.2,79.4
		C867.1,580.4,866.1,581,865,581z"/>
	<circle class="st8" cx="398.4" cy="882.8" r="8.1"/>
	<circle class="st8" cx="627.4" cy="877.8" r="8.1"/>
</g>
<g id="geolocation-2">
	<path class="st9" d="M641.3,210.9c-99.5-27.8-202.6,30.4-230.4,129.8c-22.4,80.3,34.4,329.9,57.2,423.1c2.7,11.2,14,18,25.2,15.3
		c3.7-0.9,7.1-2.8,9.8-5.5c67.8-68,245.6-252,268.1-332.3C798.9,341.8,740.8,238.6,641.3,210.9z M568.5,471.4
		c-50.7-14.1-80.3-66.7-66.1-117.4c14.1-50.7,66.7-80.3,117.4-66.1c50.7,14.1,80.3,66.7,66.1,117.4
		C671.8,455.9,619.2,485.5,568.5,471.4C568.6,471.4,568.6,471.4,568.5,471.4z"/>
	<path class="st10" d="M488.4,781.2c-2.1,0-4.1-0.3-6.1-0.8c-7.8-2.1-13.8-8.3-15.7-16.2c-24.6-100.8-79.4-344-57.2-423.8
		c28-100.3,132-158.9,232.3-130.9c100.1,28,158.8,132.1,130.9,232.2c-22.3,79.8-195.1,259.4-268.4,332.9
		C500,778.8,494.3,781.2,488.4,781.2z M590.7,205.4c-83.1,0.2-156,55.6-178.4,135.7c-22.1,79.1,32.7,321.7,57.2,422.3
		c2.5,10.4,13,16.7,23.4,14.2c3.4-0.8,6.6-2.6,9.1-5.1c73.1-73.4,245.6-252.5,267.7-331.6c27.5-98.5-30.3-201-128.8-228.5
		C624.6,207.7,607.7,205.4,590.7,205.4z M594.3,476.4c-53.5,0.1-96.9-43.2-97-96.7c-0.1-53.5,43.2-96.9,96.7-97s96.9,43.2,97,96.7
		c0.1,35-18.8,67.4-49.4,84.6C627.2,472.1,610.9,476.4,594.3,476.4z M594,285.9c-51.8,0-93.7,42-93.7,93.8c0,42.1,28.1,79,68.7,90.3
		l0,0c49.8,14.2,101.7-14.6,115.9-64.4s-14.6-101.7-64.4-115.9c-0.4-0.1-0.7-0.2-1.1-0.3C611.1,287.1,602.6,285.9,594,285.9z"/>
	<path class="st0" d="M755,249c-0.8,0-1.5-0.5-1.8-1.2c-27.2-64.2-110.6-74.7-111.4-74.8c-1.1-0.1-1.9-1.1-1.8-2.2
		c0.1-1.1,1.1-1.9,2.2-1.8c16.1,2.4,31.7,6.9,46.6,13.4c22.9,10,53.3,29.1,68,63.8c0.4,1,0,2.2-1.1,2.6
		C755.5,248.9,755.3,249,755,249z"/>
	<path class="st0" d="M799,863c-0.2,0-0.4,0-0.5-0.1c-43.4-11.7-83-33.3-117.6-64.3c-27.7-24.7-52.2-55.4-73-91.3
		c-35.4-60.9-47.7-116.4-47.8-117c-0.3-1.1,0.3-2.2,1.4-2.5c1.1-0.3,2.2,0.3,2.5,1.4c0,0.1,0,0.1,0,0.2
		c0.1,0.5,12.4,55.5,47.5,115.9c32.3,55.6,91.2,127.4,188.1,153.6c1.1,0.1,1.9,1.2,1.7,2.3S800.1,863.1,799,863z"/>
	<path class="st0" d="M639,825c-0.4,0-0.7-0.1-1-0.3c-45.9-26.6-73-65.8-87.8-93.9c-16-30.5-21.1-55.2-21.2-55.4
		c-0.2-1.1,0.5-2.1,1.6-2.4s2.1,0.5,2.4,1.6c0,0.2,5.2,24.4,20.9,54.5c14.5,27.7,41.2,66.1,86.2,92.2c1,0.6,1.3,1.8,0.7,2.7
		C640.4,824.6,639.7,825,639,825L639,825z"/>
	<path class="st5" d="M610,619c-1.7,0-3-1.3-3-3c0-0.9,0.4-1.8,1.2-2.4c65.7-50,111.8-131.3,112.2-132.1c0.8-1.4,2.6-2,4.1-1.1
		c1.4,0.8,2,2.6,1.2,4.1c-0.5,0.8-47.1,83.1-113.8,133.9C611.3,618.8,610.7,619,610,619z"/>
	<path class="st5" d="M490,253c-0.9,0-1.8-0.4-2.3-1.1c-1-1.3-0.9-3.2,0.4-4.2c0.7-0.6,17.5-14.2,44.6-24.1
		c25.1-9.2,64.1-16.7,107.3-0.4c1.6,0.6,2.3,2.3,1.8,3.9s-2.3,2.3-3.9,1.8c-41.4-15.7-78.8-8.5-103,0.3
		c-26.3,9.6-42.9,23.1-43.1,23.2C491.3,252.8,490.7,253,490,253z"/>
</g>
<g id="hand">
	<path class="st1" d="M256,755c0-84-39.6-127.1-42.6-173.5c-8.9-139.1,62.5-183.8,80.8-211.7c24.5-37.3,71.6-5.1,71.6-5.1l9.6-10.7
		c0,0,15.6,34.4,61.7,46.2l-6,19.4c0,0,19.2,43.1-10,68.4C392,513.1,362,583,385,648"/>
	<path class="st0" d="M256,757c-1.1,0-2-0.9-2-2c0-49.6-13.8-84.4-25.9-115.1c-8.3-21-15.5-39.2-16.7-58.3
		c-7.3-114.2,38.9-165.1,66.5-195.5c6.1-6.7,11.3-12.5,14.6-17.5c6.5-9.9,15.2-16,25.7-18.1c20.4-4,41.5,7.9,47.2,11.4l8.5-9.4
		c0.5-0.5,1.1-0.7,1.8-0.6c0.7,0.1,1.2,0.5,1.5,1.1c0.1,0.3,15.8,33.7,60.4,45.1c0.5,0.1,1,0.5,1.3,1c0.3,0.5,0.3,1,0.2,1.6
		l-5.8,18.7c2.4,5.8,17.1,45.8-10.8,70c-29.4,25.4-58.1,94.5-35.6,158c0.4,1-0.2,2.2-1.2,2.6c-1,0.4-2.2-0.2-2.6-1.2
		c-23-65.2,6.5-136.1,36.8-162.3c27.7-24,9.6-65.6,9.4-66c-0.2-0.4-0.2-0.9-0.1-1.4l5.4-17.4c-38.1-10.5-54.9-35.8-59.6-44.1
		l-7.7,8.5c-0.7,0.7-1.8,0.9-2.6,0.3c-0.2-0.2-24-16.1-45.7-11.8c-9.5,1.9-17.3,7.4-23.2,16.4c-3.5,5.3-8.8,11.2-15,18
		c-27.2,29.9-72.7,80-65.5,192.5c1.2,18.5,8.3,36.3,16.4,57c12.2,31,26.2,66.2,26.2,116.6C258,756.1,257.1,757,256,757z"/>
	<path class="st2" d="M429.6,419.2c0.1,0,5.7-18.4,5.7-18.4c-46.1-11.8-60-44.7-60-44.7l-9.9,10.4l0.3-0.6
		C365.6,365.9,366.5,411.8,429.6,419.2z"/>
	<path class="st6" d="M451.9,264.9c0,0-32.1-13.7-52.7,17.1s-30,65.6-16.1,90.7s35.3,31,51,27.4s21.6-18.7,13.1-37.5
		c0,0,25.7-11.6,8.8-43.6c0,0,31.5-32-7.9-40.1L451.9,264.9z"/>
	<path d="M377.8,331.7c2.9-16.4,10.6-33.6,21.4-49.7c20.5-30.8,52.7-17.1,52.7-17.1l-3.7,14c17.4,3.6,21,11.8,19.5,19.9
		c-1.8,10.2-11.6,20.2-11.6,20.2c5.5,10.4,6.5,18.6,5.3,24.9c-2.4,13.4-14.2,18.6-14.2,18.6c3.5,7.7,4.6,14.8,3.5,20.7
		c-1.5,8.5-7.4,14.6-16.6,16.8c-15.7,3.7-37.2-2.3-51-27.4C376.5,360.8,375.2,346.6,377.8,331.7 M375,331.2
		c-2.9,16.4-1.1,30.8,5.6,42.8s15.6,20.8,26.1,25.7c8.8,4.1,18.6,5.2,28.1,3.1c10.2-2.4,17-9.3,18.8-19c1.1-6,0.1-12.9-2.7-20
		c7-4.3,11.8-11.4,13.3-19.4c1.3-7.5-0.2-15.9-4.7-25c2.9-3.3,9.5-11.5,11-20.2c1.4-7.9-0.9-17.9-18.8-22.5l3-11.1
		c0-0.1,0-0.2,0-0.2c0.2-1.3-0.5-2.6-1.7-3.1c-6.4-2.4-13.1-3.5-19.9-3.2c-10.3,0.4-25,4.5-36.3,21.4
		C385.4,297.4,377.9,315,375,331.2L375,331.2z"/>
	<path class="st0" d="M441.2,364.8c-17.5,0-34-8.5-44.2-22.8c-0.4-0.7-0.2-1.6,0.5-2.1c0.7-0.4,1.6-0.2,2.1,0.5
		c0.2,0.3,16.7,26,50.9,20.6c0.8-0.1,1.6,0.4,1.7,1.3c0.1,0.8-0.4,1.6-1.3,1.7C447.7,364.6,444.4,364.8,441.2,364.8z"/>
	<path class="st0" d="M451,322.4c-18.3,0-38.1-11-39.1-11.5c-0.7-0.4-1-1.3-0.6-2c0.4-0.7,1.3-1,2-0.6c0.3,0.1,26,14.4,44.7,10.5
		c0.8-0.2,1.6,0.4,1.8,1.2s-0.4,1.6-1.2,1.8l0,0C456.2,322.2,453.6,322.5,451,322.4z"/>
	<path class="st0" d="M451.5,279.9c-0.2,0-0.5-0.1-0.7-0.2c-0.1-0.1-15.2-8.2-25.9-4.4c-0.8,0.3-1.6-0.1-1.9-0.9
		c-0.3-0.8,0.1-1.6,0.9-1.9l0,0c12-4.3,27.7,4.2,28.3,4.6c0.7,0.4,1,1.3,0.6,2C452.6,279.6,452.1,279.9,451.5,279.9L451.5,279.9z"/>
	<circle class="st8" cx="296.4" cy="460.8" r="8.1"/>
	<circle class="st8" cx="294.4" cy="536.8" r="8.1"/>
	<circle class="st8" cx="397.4" cy="474.8" r="8.1"/>
	<circle class="st8" cx="296.4" cy="657.8" r="8.1"/>
	<path class="st6" d="M772.3,336.7c0,0,32.8-12,51.8,19.7s26.7,67,11.6,91.4s-36.8,29.2-52.3,24.8s-20.7-19.8-11.2-38
		c0,0-25.1-12.8-6.7-44c0,0-29.9-33.6,9.9-39.7L772.3,336.7z"/>
	<path d="M842.9,407.1c1.9,15-0.1,29-7.3,40.6c-15,24.3-36.8,29.2-52.3,24.8c-9.1-2.6-14.7-9-15.8-17.6c-0.8-6,0.7-13,4.5-20.5
		c0,0-11.5-5.9-13.2-19.3c-0.8-6.4,0.6-14.6,6.5-24.6c0,0-9.3-10.5-10.6-20.8c-1-8.1,2.9-16.2,20.5-18.9l-3-14.1
		c0,0,32.8-12,51.8,19.7C834,373,840.8,390.6,842.9,407.1 M845.8,406.8c-2.1-16.3-8.7-34.2-19.3-51.9
		c-10.4-17.4-24.9-22.2-35.2-23.1c-6.7-0.6-13.6,0.1-20,2.2c-1.2,0.5-2,1.7-1.8,3c0,0.1,0,0.2,0,0.2l2.4,11.3
		c-18.2,3.8-20.9,13.7-19.9,21.6c1.1,8.7,7.2,17.2,10,20.7c-4.9,8.8-6.9,17.1-5.9,24.7c1.1,8.1,5.6,15.4,12.4,20
		c-3.2,7-4.4,13.8-3.7,19.8c1.3,9.8,7.7,17.1,17.8,20c9.3,2.6,19.2,2,28.2-1.7c10.7-4.3,20.2-12.7,27.4-24.3
		S847.9,423.3,845.8,406.8L845.8,406.8z"/>
	<path class="st0" d="M780.9,437.1c-4.2,0-8.4-0.5-12.5-1.3c-0.8-0.1-1.4-0.9-1.3-1.7c0.1-0.8,0.9-1.4,1.7-1.3c0.1,0,0.1,0,0.2,0
		c33.9,7.1,51.7-17.8,51.9-18c0.5-0.7,1.4-0.8,2.1-0.4c0.7,0.5,0.8,1.4,0.4,2.1l0,0C813,429.5,797.4,437.1,780.9,437.1z"/>
	<path class="st0" d="M772,351.8c-0.8,0-1.5-0.7-1.5-1.5c0-0.6,0.3-1.1,0.8-1.4c0.7-0.3,16.8-8,28.5-3.1c0.8,0.3,1.1,1.2,0.8,2
		c-0.3,0.7-1.2,1.1-1.9,0.8c-10.5-4.4-25.9,3-26.1,3.1C772.4,351.7,772.2,351.8,772,351.8z"/>
	<path class="st5" d="M225,568c-1.6,0-2.9-1.3-3-2.9c-1.6-36.8,11.5-71.3,22.7-93.7c12.1-24.3,24.5-39.6,25-40.3
		c1-1.3,2.9-1.5,4.2-0.5s1.5,2.9,0.5,4.2l0,0c-0.5,0.6-49.3,62-46.3,130c0.1,1.7-1.2,3.1-2.9,3.1c0,0,0,0,0,0L225,568z"/>
	<path class="st5" d="M776.4,387.3c-11.1,0-15.4-5-15.7-5.4c-1-1.3-0.8-3.2,0.5-4.2c1.2-1,3-0.8,4.1,0.3c0.2,0.3,9.7,9.6,38.4-4.7
		c1.5-0.7,3.3,0,4,1.5c0.6,1.4,0.1,3.1-1.3,3.8C793.2,385.2,783.5,387.3,776.4,387.3z"/>
	<path class="st5" d="M778.5,428.5c-4.8,0-9.6-0.5-14.2-1.5c-1.6-0.4-2.6-2.1-2.2-3.7c0.4-1.6,2.1-2.6,3.7-2.2l0,0
		c0.3,0.1,29.5,7.3,48-13.1c1-1.3,2.9-1.6,4.2-0.6c1.3,1,1.6,2.9,0.6,4.2c-0.1,0.1-0.2,0.3-0.4,0.4
		C805.9,425.6,789.9,428.5,778.5,428.5z"/>
	<path class="st5" d="M793,471c-1.7,0.1-3.1-1.1-3.2-2.8c-0.1-1.7,1.1-3.1,2.8-3.2c1.2-0.2,28.1-4.8,38.5-32.4
		c0.5-1.6,2.2-2.4,3.8-1.9c1.6,0.5,2.4,2.2,1.9,3.8c0,0.1-0.1,0.2-0.1,0.3c-11.7,31-41.9,36-43.2,36.2C793.3,471,793.2,471,793,471z
		"/>
</g>
</svg>
